export const midiData = {
  "total_time": 0.0,
  "tempos": [
    {
      "time": 0.0,
      "qpm": 120.0
    }
  ],
  "time_signatures": [],
  "notes": [
    {
      "pitch": 43,
      "start_time": 0.0,
      "end_time": 0.09287981859410431,
      "velocity": 80,
      "instrument": 0
    },
    {
      "pitch": 40,
      "start_time": 0.09287981859410431,
      "end_time": 0.16253968253968254,
      "velocity": 80,
      "instrument": 0
    },
    {
      "pitch": 41,
      "start_time": 0.23219954648526078,
      "end_time": 0.301859410430839,
      "velocity": 80,
      "instrument": 0
    },
    {
      "pitch": 38,
      "start_time": 0.301859410430839,
      "end_time": 0.37151927437641724,
      "velocity": 80,
      "instrument": 0
    },
    {
      "pitch": 90,
      "start_time": 0.44117913832199546,
      "end_time": 0.5108390022675737,
      "velocity": 80,
      "instrument": 0
    },
    {
      "pitch": 93,
      "start_time": 0.5108390022675737,
      "end_time": 0.5804988662131519,
      "velocity": 80,
      "instrument": 0
    },
    {
      "pitch": 39,
      "start_time": 0.626938775510204,
      "end_time": 0.7198185941043084,
      "velocity": 80,
      "instrument": 0
    },
    {
      "pitch": 39,
      "start_time": 0.7894784580498866,
      "end_time": 0.8591383219954648,
      "velocity": 80,
      "instrument": 0
    },
    {
      "pitch": 56,
      "start_time": 0.9287981859410431,
      "end_time": 1.3235374149659864,
      "velocity": 80,
      "instrument": 0
    },
    {
      "pitch": 52,
      "start_time": 1.3235374149659864,
      "end_time": 1.4396371882086167,
      "velocity": 80,
      "instrument": 0
    },
    {
      "pitch": 49,
      "start_time": 1.4396371882086167,
      "end_time": 1.5325170068027212,
      "velocity": 80,
      "instrument": 0
    },
    {
      "pitch": 45,
      "start_time": 1.5325170068027212,
      "end_time": 1.6718367346938776,
      "velocity": 80,
      "instrument": 0
    },
    {
      "pitch": 45,
      "start_time": 1.6950566893424037,
      "end_time": 1.811156462585034,
      "velocity": 80,
      "instrument": 0
    },
    {
      "pitch": 56,
      "start_time": 1.811156462585034,
      "end_time": 1.8808163265306121,
      "velocity": 80,
      "instrument": 0
    },
    {
      "pitch": 43,
      "start_time": 1.8808163265306121,
      "end_time": 2.182675736961451,
      "velocity": 80,
      "instrument": 0
    },
    {
      "pitch": 55,
      "start_time": 2.3219954648526078,
      "end_time": 2.8792743764172335,
      "velocity": 80,
      "instrument": 0
    },
    {
      "pitch": 52,
      "start_time": 2.8792743764172335,
      "end_time": 2.995374149659864,
      "velocity": 80,
      "instrument": 0
    },
    {
      "pitch": 49,
      "start_time": 2.995374149659864,
      "end_time": 3.0882539682539685,
      "velocity": 80,
      "instrument": 0
    },
    {
      "pitch": 46,
      "start_time": 3.0882539682539685,
      "end_time": 3.3668934240362813,
      "velocity": 80,
      "instrument": 0
    },
    {
      "pitch": 43,
      "start_time": 3.3668934240362813,
      "end_time": 3.7384126984126986,
      "velocity": 80,
      "instrument": 0
    },
    {
      "pitch": 43,
      "start_time": 3.8312925170068026,
      "end_time": 4.2260317460317465,
      "velocity": 80,
      "instrument": 0
    },
    {
      "pitch": 56,
      "start_time": 4.2260317460317465,
      "end_time": 4.458231292517007,
      "velocity": 80,
      "instrument": 0
    },
    {
      "pitch": 43,
      "start_time": 4.458231292517007,
      "end_time": 4.73687074829932,
      "velocity": 80,
      "instrument": 0
    },
    {
      "pitch": 44,
      "start_time": 5.085170068027211,
      "end_time": 5.2477097505668935,
      "velocity": 80,
      "instrument": 0
    },
    {
      "pitch": 40,
      "start_time": 5.294149659863946,
      "end_time": 5.363809523809524,
      "velocity": 80,
      "instrument": 0
    },
    {
      "pitch": 45,
      "start_time": 5.526349206349207,
      "end_time": 5.688888888888889,
      "velocity": 80,
      "instrument": 0
    },
    {
      "pitch": 39,
      "start_time": 5.828208616780046,
      "end_time": 5.897868480725624,
      "velocity": 80,
      "instrument": 0
    },
    {
      "pitch": 42,
      "start_time": 6.176507936507937,
      "end_time": 6.292607709750567,
      "velocity": 80,
      "instrument": 0
    },
    {
      "pitch": 57,
      "start_time": 6.292607709750567,
      "end_time": 6.501587301587302,
      "velocity": 80,
      "instrument": 0
    },
    {
      "pitch": 55,
      "start_time": 6.617687074829932,
      "end_time": 6.6873469387755105,
      "velocity": 80,
      "instrument": 0
    },
    {
      "pitch": 55,
      "start_time": 6.710566893424036,
      "end_time": 6.8034467120181406,
      "velocity": 80,
      "instrument": 0
    },
    {
      "pitch": 42,
      "start_time": 7.082086167800454,
      "end_time": 7.151746031746032,
      "velocity": 80,
      "instrument": 0
    },
    {
      "pitch": 42,
      "start_time": 7.198185941043084,
      "end_time": 7.291065759637188,
      "velocity": 80,
      "instrument": 0
    },
    {
      "pitch": 62,
      "start_time": 7.616145124716553,
      "end_time": 7.685804988662132,
      "velocity": 80,
      "instrument": 0
    },
    {
      "pitch": 90,
      "start_time": 7.87156462585034,
      "end_time": 7.964444444444444,
      "velocity": 80,
      "instrument": 0
    },
    {
      "pitch": 56,
      "start_time": 8.219863945578231,
      "end_time": 8.52172335600907,
      "velocity": 80,
      "instrument": 0
    },
    {
      "pitch": 38,
      "start_time": 8.777142857142858,
      "end_time": 8.846802721088435,
      "velocity": 80,
      "instrument": 0
    },
    {
      "pitch": 43,
      "start_time": 8.870022675736962,
      "end_time": 8.986122448979591,
      "velocity": 80,
      "instrument": 0
    },
    {
      "pitch": 39,
      "start_time": 9.287981859410431,
      "end_time": 9.357641723356009,
      "velocity": 80,
      "instrument": 0
    },
    {
      "pitch": 91,
      "start_time": 9.47374149659864,
      "end_time": 9.775600907029478,
      "velocity": 80,
      "instrument": 0
    },
    {
      "pitch": 56,
      "start_time": 9.775600907029478,
      "end_time": 10.031020408163265,
      "velocity": 80,
      "instrument": 0
    }
  ],
  "total_notes": 41
}
